<svg width="26" height="30" viewBox="0 0 26 30" fill="none" xmlns="http://www.w3.org/2000/svg">
<g clip-path="url(#clip0_379_689)">
<path d="M24.7304 8.21672C24.2772 7.50328 23.5765 7.05199 22.8116 6.98168L6.98736 5.53559L6.69968 3.65508C6.43669 1.93799 5.25257 0.60832 3.75782 0.353203L3.4703 0.303691L1.75958 0.0108398C1.283 -0.0699024 0.839528 0.309082 0.76884 0.858984C0.698001 1.40936 1.02711 1.92111 1.5037 2.00238V2.00191L3.50229 2.34375L3.50275 2.34527C4.2537 2.47207 4.84977 3.14133 4.98206 4.00488L7.69063 21.7179C7.94479 23.3805 9.19614 24.5917 10.6594 24.5923H21.7902C22.2721 24.5923 22.6624 24.1414 22.6624 23.5861C22.6624 23.0303 22.2721 22.5795 21.7902 22.5795H10.6593C10.0432 22.58 9.5149 22.0682 9.40795 21.3682L9.02907 18.8897H21.4371C22.6654 18.8897 23.7311 17.9118 24.0069 16.5306L25.1732 10.6992C25.3458 9.83713 25.184 8.93109 24.7304 8.21672Z" fill="black" stroke="black" stroke-width="0.8"/>
<path d="M11.3249 25.6712C10.2888 25.6712 9.44925 26.6412 9.44925 27.8361C9.44925 29.0311 10.2888 30 11.3249 30C12.3608 30 13.2009 29.0311 13.2009 27.8361C13.2009 26.6412 12.3608 25.6712 11.3249 25.6712Z" fill="black" stroke="black" stroke-width="0.8"/>
<path d="M19.6587 25.6712C18.6224 25.6712 17.7831 26.6412 17.7831 27.8361C17.7831 29.0311 18.6224 30 19.6587 30C20.6947 30 21.5347 29.0311 21.5347 27.8361C21.5347 26.6412 20.6947 25.6712 19.6587 25.6712Z" fill="black" stroke="black" stroke-width="0.8"/>
</g>
<defs>
<clipPath id="clip0_379_689">
<rect width="26" height="30" fill="white"/>
</clipPath>
</defs>
</svg>
