<?xml version="1.0" encoding="utf-8"?>
<svg version="1.1" xmlns:xlink="http://www.w3.org/1999/xlink" width="30px" height="30px" xmlns="http://www.w3.org/2000/svg">
  <g transform="matrix(1 0 0 1 -1030 -2750 )">
    <path d="M 1.66015625 0  L 28.33984375 0  C 28.7955729166667 0  29.1861979166667 0.162760416666666  29.51171875 0.488281249999999  C 29.8372395833333 0.813802083333331  30 1.20442708333333  30 1.66015625  L 30 28.33984375  C 30 28.7955729166667  29.8372395833333 29.1861979166667  29.51171875 29.51171875  C 29.1861979166667 29.8372395833333  28.7955729166667 30  28.33984375 30  L 20.703125 30  L 20.703125 18.37890625  L 24.58984375 18.37890625  L 25.17578125 13.84765625  L 20.703125 13.84765625  L 20.703125 10.95703125  C 20.703125 10.2278645833333  20.8561197916667 9.68098958333333  21.162109375 9.31640625  C 21.4680989583333 8.95182291666667  22.0638020833333 8.76953125  22.94921875 8.76953125  L 25.33203125 8.75  L 25.33203125 4.70703125  C 24.51171875 4.58984375  23.3528645833333 4.53125  21.85546875 4.53125  C 20.0846354166667 4.53125  18.6686197916667 5.05208333333333  17.607421875 6.09375  C 16.5462239583333 7.13541666666667  16.015625 8.60677083333333  16.015625 10.5078125  L 16.015625 13.84765625  L 12.109375 13.84765625  L 12.109375 18.37890625  L 16 18.37890625  L 16 30  L 1.66015625 30  C 1.20442708333333 30  0.813802083333333 29.8372395833333  0.48828125 29.51171875  C 0.162760416666667 29.1861979166667  0 28.7955729166667  0 28.33984375  L 0 1.66015625  C 0 1.20442708333333  0.162760416666667 0.813802083333331  0.48828125 0.488281249999999  C 0.813802083333333 0.162760416666666  1.20442708333333 0  1.66015625 0  Z " fill-rule="nonzero" fill="#ffffff" stroke="none" transform="matrix(1 0 0 1 1030 2750 )" />
  </g>
</svg>