<!DOCTYPE svg PUBLIC "-//W3C//DTD SVG 1.1//EN" "http://www.w3.org/Graphics/SVG/1.1/DTD/svg11.dtd">
<!-- Uploaded to: SVG Repo, www.svgrepo.com, Transformed by: SVG Repo Mixer Tools -->
<svg fill="#000000" height="800px" width="800px" version="1.1" id="Layer_1" xmlns="http://www.w3.org/2000/svg" xmlns:xlink="http://www.w3.org/1999/xlink" viewBox="0 0 507.108 507.108" xml:space="preserve" stroke="#000000" stroke-width="8.113728">
<g id="SVGRepo_bgCarrier" stroke-width="0"/>
<g id="SVGRepo_tracerCarrier" stroke-linecap="round" stroke-linejoin="round"/>
<g id="SVGRepo_iconCarrier"> <g transform="translate(1 1)"> <g> <g> <path d="M502.244,155.95L412.403,21.671c-4.83-6.762-12.559-10.626-20.287-10.626H137.082c-7.728,0-15.457,3.864-20.287,11.592 l-12.858,19.218L77.188,20.705c-3.864-3.864-9.66-4.83-16.423-3.864c-5.796,0-10.626,3.864-13.525,7.728L3.769,82.532 c-7.728,9.66-5.796,23.185,3.864,30.913l31.87,24.715l-12.549,18.756c-2.898,3.864-3.864,8.694-3.864,13.525v299.472 c0,13.525,10.626,24.151,24.151,24.151h434.717c13.525,0,24.151-10.626,24.151-25.117V169.475 C506.108,164.645,505.142,159.815,502.244,155.95z M50.139,122.139L19.225,97.988c-0.966-0.966-0.966-2.898-0.966-3.864 l43.472-57.962c0-0.966,0.966-0.966,1.932-0.966c0.966,0,1.932,0,1.932,0.966l27.96,21.211L71.869,89.785L50.139,122.139z M486.788,469.913c0,2.898-1.932,4.83-4.83,4.83H47.24c-2.898,0-4.83-1.932-4.83-4.83V170.441c0-0.966,0-1.932,0.966-2.898 l11.565-17.41l0.027,0.021l6.374-9.657l71.875-108.199c0.966-0.966,1.932-1.932,3.864-1.932h255.034 c1.932,0,2.898,0.966,3.864,1.932l89.842,135.245c0.966,0.966,0.966,1.932,0.966,2.898V469.913z"/> <path d="M314.833,223.573H214.365c-9.66,0-17.389,7.728-17.389,17.389v81.147c0,9.66,7.728,17.389,17.389,17.389h100.468 c9.66,0,17.389-7.728,17.389-17.389v-81.147C332.222,231.301,324.493,223.573,314.833,223.573z M312.901,320.177h-96.604v-77.283 h96.604V320.177z"/> <path d="M145.776,158.849c-3.864-3.864-9.66-3.864-13.524,0c-3.864,3.864-3.864,9.66,0,13.525l38.641,38.641 c1.932,1.932,3.864,2.898,6.762,2.898s4.83-0.966,6.762-2.898c3.864-3.864,3.864-9.66,0-13.525L145.776,158.849z"/> <path d="M383.422,158.849L344.78,197.49c-3.864,3.864-3.864,9.66,0,13.525c1.932,1.932,3.864,2.898,6.762,2.898 c2.898,0,4.83-0.966,6.762-2.898l38.642-38.641c3.864-3.864,3.864-9.66,0-13.525 C393.082,154.984,387.286,154.984,383.422,158.849z"/> <path d="M358.305,352.056c-3.864-3.864-9.66-3.864-13.525,0c-3.864,3.864-3.864,9.66,0,13.525l38.642,38.642 c1.932,1.932,3.864,2.898,6.762,2.898c2.898,0,4.83-0.966,6.762-2.898c3.864-3.864,3.864-9.66,0-13.525L358.305,352.056z"/> <path d="M170.893,352.056l-38.641,38.641c-3.864,3.864-3.864,9.66,0,13.525c1.932,1.932,3.864,2.898,6.762,2.898 c2.898,0,4.83-0.966,6.762-2.898l38.642-38.642c3.864-3.864,3.864-9.66,0-13.525 C180.554,348.192,174.757,348.192,170.893,352.056z"/> <path d="M180.554,126.969H349.61c11.592,0,21.253-9.66,21.253-22.219V80.599c0-11.592-9.66-21.253-21.253-21.253H180.554 c-11.592,0-21.253,9.66-21.253,21.253v25.117C159.301,117.309,168.961,126.969,180.554,126.969z M178.622,80.599 c0-0.966,0.966-1.932,1.932-1.932H349.61c0.966,0,1.932,0.966,1.932,1.932v24.151c0,0.966-0.966,1.932-1.932,1.932H180.554 c-0.966,0-1.932-0.966-1.932-1.932V80.599z"/> </g> </g> </g> </g>
</svg>