<?xml version="1.0" encoding="utf-8"?>
<svg version="1.1" xmlns:xlink="http://www.w3.org/1999/xlink" width="30px" height="30px" xmlns="http://www.w3.org/2000/svg">
  <g transform="matrix(1 0 0 1 -1180 -2750 )">
    <path d="M 5 11.5625  L 5 25.1171875  L 9.140625 25.1171875  L 9.140625 11.5625  L 5 11.5625  Z M 8.73046875 9.052734375  C 9.19921875 8.603515625  9.43359375 8.046875  9.43359375 7.3828125  C 9.42057291666667 6.70572916666666  9.18619791666667 6.14583333333333  8.73046875 5.703125  C 8.27473958333333 5.26041666666667  7.66927083333333 5.0390625  6.9140625 5.0390625  C 6.15885416666667 5.0390625  5.54361979166667 5.26041666666667  5.068359375 5.703125  C 4.59309895833333 6.14583333333333  4.35546875 6.70572916666666  4.35546875 7.3828125  C 4.35546875 8.046875  4.58658854166667 8.603515625  5.048828125 9.052734375  C 5.51106770833333 9.501953125  6.11328125 9.7265625  6.85546875 9.7265625  L 6.875 9.7265625  C 7.64322916666667 9.7265625  8.26171875 9.501953125  8.73046875 9.052734375  Z M 20.859375 17.87109375  L 20.859375 25.1171875  L 25.37109375 25.1171875  L 25.37109375 17.34375  C 25.37109375 15.3385416666667  24.8958333333333 13.8216145833333  23.9453125 12.79296875  C 22.9947916666667 11.7643229166667  21.73828125 11.25  20.17578125 11.25  C 18.4049479166667 11.25  17.0442708333333 12.01171875  16.09375 13.53515625  L 16.1328125 13.53515625  L 16.1328125 11.5625  L 11.62109375 11.5625  C 11.66015625 12.421875  11.66015625 16.9401041666667  11.62109375 25.1171875  L 16.1328125 25.1171875  L 16.1328125 17.5390625  C 16.1328125 17.0442708333333  16.1783854166667 16.6796875  16.26953125 16.4453125  C 16.46484375 15.9895833333333  16.7578125 15.6022135416667  17.1484375 15.283203125  C 17.5390625 14.9641927083333  18.0208333333333 14.8046875  18.59375 14.8046875  C 20.1041666666667 14.8046875  20.859375 15.8268229166667  20.859375 17.87109375  Z M 28.349609375 1.650390625  C 29.4498697916667 2.75065104166666  30 4.07552083333333  30 5.625  L 30 24.375  C 30 25.9244791666667  29.4498697916667 27.2493489583333  28.349609375 28.349609375  C 27.2493489583333 29.4498697916667  25.9244791666667 30  24.375 30  L 5.625 30  C 4.07552083333333 30  2.75065104166667 29.4498697916667  1.650390625 28.349609375  C 0.550130208333333 27.2493489583333  0 25.9244791666667  0 24.375  L 0 5.625  C 0 4.07552083333333  0.550130208333333 2.75065104166666  1.650390625 1.650390625  C 2.75065104166667 0.550130208333331  4.07552083333333 0  5.625 0  L 24.375 0  C 25.9244791666667 0  27.2493489583333 0.550130208333331  28.349609375 1.650390625  Z " fill-rule="nonzero" fill="#ffffff" stroke="none" transform="matrix(1 0 0 1 1180 2750 )" />
  </g>
</svg>