<?xml version="1.0" encoding="utf-8"?>
<svg version="1.1" xmlns:xlink="http://www.w3.org/1999/xlink" width="30px" height="22px" xmlns="http://www.w3.org/2000/svg">
  <g transform="matrix(1 0 0 1 -1080 -2754 )">
    <path d="M 11.9063545150502 6.26825396825397  L 11.9063545150502 15.0507936507937  L 20 10.6857142857143  L 11.9063545150502 6.26825396825397  Z M 4.51505016722408 0.314285714285713  C 7.31326644370123 0.104761904761904  10.8082497212932 0  15 0  C 16.8729096989967 0  18.6817168338907 0.0261904761904761  20.4264214046823 0.0785714285714283  C 22.1711259754738 0.13095238095238  23.4503901895206 0.186243386243385  24.2642140468227 0.244444444444444  L 25.4849498327759 0.314285714285713  C 25.4960981047938 0.314285714285713  25.5908584169454 0.323015873015872  25.7692307692308 0.340476190476189  C 25.9476031215162 0.357936507936509  26.0758082497213 0.375396825396827  26.1538461538462 0.392857142857144  C 26.231884057971 0.410317460317461  26.3628762541806 0.436507936507937  26.5468227424749 0.471428571428572  C 26.7307692307692 0.506349206349207  26.8896321070234 0.55291005291005  27.0234113712375 0.611111111111111  C 27.1571906354515 0.669312169312168  27.3132664437012 0.744973544973542  27.4916387959866 0.838095238095238  C 27.670011148272 0.931216931216929  27.8428093645485 1.04470899470899  28.0100334448161 1.17857142857143  C 28.1772575250836 1.31243386243386  28.3389074693423 1.46666666666667  28.494983277592 1.64126984126984  C 28.561872909699 1.71111111111111  28.6482720178372 1.81878306878307  28.7541806020067 1.96428571428571  C 28.8600891861761 2.10978835978836  29.0217391304348 2.45026455026455  29.2391304347826 2.98571428571428  C 29.4565217391304 3.52116402116402  29.6042363433668 4.10899470899471  29.6822742474916 4.74920634920635  C 29.7714604236343 5.49417989417989  29.8411371237458 6.28862433862434  29.8913043478261 7.13253968253968  C 29.9414715719064 7.97645502645503  29.9721293199554 8.63703703703703  29.9832775919732 9.11428571428571  L 29.9832775919732 9.81269841269841  L 29.9832775919732 12.1873015873016  C 29.9944258639911 13.8751322751323  29.8940914158305 15.562962962963  29.6822742474916 17.2507936507937  C 29.6042363433668 17.8910052910053  29.4648829431438 18.4701058201058  29.2642140468227 18.9880952380952  C 29.0635451505017 19.5060846560847  28.8851727982163 19.8640211640212  28.7290969899666 20.0619047619048  L 28.494983277592 20.3587301587302  C 28.3389074693423 20.5333333333333  28.1772575250836 20.6875661375661  28.0100334448161 20.8214285714286  C 27.8428093645485 20.955291005291  27.670011148272 21.065873015873  27.4916387959866 21.1531746031746  C 27.3132664437012 21.2404761904762  27.1571906354515 21.3132275132275  27.0234113712375 21.3714285714286  C 26.8896321070234 21.4296296296296  26.7307692307692 21.4761904761905  26.5468227424749 21.5111111111111  C 26.3628762541806 21.5460317460317  26.2290969899666 21.5722222222222  26.1454849498328 21.5896825396825  C 26.061872909699 21.6071428571429  25.9336677814939 21.6246031746032  25.7608695652174 21.6420634920635  C 25.5880713489409 21.6595238095238  25.4960981047938 21.668253968254  25.4849498327759 21.668253968254  C 22.6867335562988 21.889417989418  19.1917502787068 22  15 22  C 12.6923076923077 21.9767195767196  10.6884057971014 21.9388888888889  8.98829431438127 21.8865079365079  C 7.28818283166109 21.834126984127  6.17056856187291 21.7904761904762  5.63545150501672 21.7555555555556  L 4.81605351170569 21.6857142857143  L 4.21404682274247 21.615873015873  C 3.81270903010033 21.557671957672  3.50891861761427 21.4994708994709  3.30267558528428 21.4412698412698  C 3.09643255295429 21.3830687830688  2.81215161649944 21.2608465608466  2.44983277591973 21.0746031746032  C 2.08751393534002 20.8883597883598  1.77257525083612 20.6497354497355  1.50501672240803 20.3587301587302  C 1.438127090301 20.2888888888889  1.35172798216276 20.1812169312169  1.24581939799331 20.0357142857143  C 1.13991081382386 19.8902116402116  0.978260869565217 19.5497354497355  0.760869565217391 19.0142857142857  C 0.543478260869565 18.478835978836  0.395763656633222 17.8910052910053  0.317725752508361 17.2507936507937  C 0.228539576365663 16.5058201058201  0.158862876254181 15.7113756613757  0.108695652173913 14.8674603174603  C 0.0585284280936455 14.023544973545  0.0278706800445931 13.362962962963  0.0167224080267559 12.8857142857143  L 0.0167224080267559 12.1873015873016  L 0.0167224080267559 9.81269841269841  C 0.00557413600891862 8.12486772486772  0.105908584169454 6.43703703703703  0.317725752508361 4.74920634920635  C 0.395763656633222 4.10899470899471  0.535117056856187 3.52989417989418  0.735785953177257 3.01190476190476  C 0.936454849498328 2.49391534391534  1.11482720178372 2.13597883597883  1.27090301003344 1.93809523809524  L 1.50501672240803 1.64126984126984  C 1.66109253065775 1.46666666666667  1.82274247491639 1.31243386243386  1.98996655518395 1.17857142857143  C 2.1571906354515 1.04470899470899  2.32998885172798 0.931216931216929  2.50836120401338 0.838095238095238  C 2.68673355629877 0.744973544973542  2.84280936454849 0.669312169312168  2.97658862876254 0.611111111111111  C 3.11036789297659 0.55291005291005  3.26923076923077 0.506349206349207  3.45317725752508 0.471428571428572  C 3.6371237458194 0.436507936507937  3.76811594202899 0.410317460317461  3.84615384615385 0.392857142857144  C 3.92419175027871 0.375396825396827  4.05239687848384 0.357936507936509  4.23076923076923 0.340476190476189  C 4.40914158305463 0.323015873015872  4.50390189520624 0.314285714285713  4.51505016722408 0.314285714285713  Z " fill-rule="nonzero" fill="#ffffff" stroke="none" transform="matrix(1 0 0 1 1080 2754 )" />
  </g>
</svg>